<svg xmlns="http://www.w3.org/2000/svg" width="900" height="420" viewBox="0 0 900 420"><style>text{font-family:Arial,sans-serif;fill:#111827}.t{font-size:26px;font-weight:700}.l{font-size:16px}.v{font-size:15px;font-weight:700}.g{stroke:#d1d5db;stroke-width:1}</style><rect width="900" height="420" fill="white"/><text x="40" y="45" class="t">Candidate-model comparison — internally validated ROC-AUC</text><line x1="250" y1="80" x2="250" y2="365" class="g"/><line x1="450" y1="80" x2="450" y2="365" class="g"/><line x1="650" y1="80" x2="650" y2="365" class="g"/><text x="40" y="125" class="l">Ridge logistic</text><rect x="250" y="103" width="488" height="28" rx="4" fill="#2563eb"/><text x="748" y="124" class="v">0.7881</text><text x="40" y="195" class="l">Random Forest</text><rect x="250" y="173" width="473" height="28" rx="4" fill="#60a5fa"/><text x="733" y="194" class="v">0.7806</text><text x="40" y="265" class="l">Standard logistic</text><rect x="250" y="243" width="457" height="28" rx="4" fill="#93c5fd"/><text x="717" y="264" class="v">0.7726</text><text x="40" y="335" class="l">Gradient Boosting</text><rect x="250" y="313" width="414" height="28" rx="4" fill="#bfdbfe"/><text x="674" y="334" class="v">0.7509</text><text x="250" y="392" class="l">0.70</text><text x="440" y="392" class="l">0.75</text><text x="640" y="392" class="l">0.80</text></svg>